<svg width="20" height="19" viewBox="0 0 20 19" fill="none" xmlns="http://www.w3.org/2000/svg">
<path opacity="0.4" d="M19.9999 13.4542C19.9999 16.2442 17.7599 18.5042 14.9699 18.5142H14.9599H5.04989C2.26989 18.5142 -0.000106812 16.2642 -0.000106812 13.4742V13.4642C-0.000106812 13.4642 0.00589319 9.03816 0.0138932 6.81216C0.0148932 6.39416 0.494893 6.16016 0.821893 6.42016C3.19789 8.30516 7.44689 11.7422 7.49989 11.7872C8.20989 12.3562 9.10989 12.6772 10.0299 12.6772C10.9499 12.6772 11.8499 12.3562 12.5599 11.7762C12.6129 11.7412 16.7669 8.40716 19.1789 6.49116C19.5069 6.23016 19.9889 6.46416 19.9899 6.88116C19.9999 9.09016 19.9999 13.4542 19.9999 13.4542Z" fill="#076271"/>
<path d="M19.476 3.18767C18.61 1.55567 16.906 0.513672 15.03 0.513672H5.04999C3.17399 0.513672 1.46999 1.55567 0.60399 3.18767C0.40999 3.55267 0.50199 4.00767 0.82499 4.26567L8.24999 10.2047C8.76999 10.6247 9.39999 10.8337 10.03 10.8337C10.034 10.8337 10.037 10.8337 10.04 10.8337C10.043 10.8337 10.047 10.8337 10.05 10.8337C10.68 10.8337 11.31 10.6247 11.83 10.2047L19.255 4.26567C19.578 4.00767 19.67 3.55267 19.476 3.18767Z" fill="#076271"/>
</svg>
